<svg width="6" height="10" viewBox="0 0 6 10" fill="none" xmlns="http://www.w3.org/2000/svg">
<path d="M4.27535 5.00221L0.216563 1.18978C0.0785823 1.06019 0.00799743 0.897291 0.00480866 0.701089C0.00160328 0.504903 0.0721881 0.339012 0.216563 0.203417C0.360922 0.0678054 0.535938 0 0.741614 0C0.94729 0 1.12231 0.0678054 1.26667 0.203417L5.74512 4.41002C5.83839 4.49762 5.90419 4.59002 5.9425 4.68722C5.98083 4.78441 6 4.8894 6 5.00221C6 5.11501 5.98083 5.22001 5.9425 5.3172C5.90419 5.4144 5.83839 5.5068 5.74512 5.59439L1.26667 9.801C1.1287 9.93061 0.955278 9.99691 0.746397 9.9999C0.537532 10.0029 0.360922 9.93661 0.216563 9.801C0.0721881 9.66541 0 9.50101 0 9.30782C0 9.11463 0.0721881 8.95024 0.216563 8.81464L4.27535 5.00221Z" fill="white"/>
</svg>
