<svg width="8" height="5" viewBox="0 0 8 5" fill="none" xmlns="http://www.w3.org/2000/svg">
<path d="M4.00177 3.56279L0.951821 0.180469C0.848149 0.0654852 0.717833 0.00666453 0.560872 0.00400722C0.403923 0.00133607 0.27121 0.0601567 0.162733 0.180469C0.0542444 0.300768 0 0.446615 0 0.618012C0 0.789408 0.0542444 0.935256 0.162733 1.05555L3.52802 4.7876C3.59809 4.86533 3.67201 4.92016 3.74978 4.95209C3.82753 4.98403 3.91152 5 4.00177 5C4.09201 5 4.17601 4.98403 4.25376 4.95209C4.33152 4.92016 4.40544 4.86533 4.47552 4.7876L7.8408 1.05555C7.94449 0.940584 7.99753 0.796065 7.99992 0.621997C8.00233 0.447944 7.94929 0.300768 7.8408 0.180469C7.73233 0.0601567 7.60081 0 7.44626 0C7.29171 0 7.16019 0.0601567 7.05171 0.180469L4.00177 3.56279Z" fill="#1C1B1F"/>
</svg>
