<svg width="165" height="117" viewBox="0 0 165 117" fill="none" xmlns="http://www.w3.org/2000/svg">
<path d="M3.12 37.06H32.22V44.74H12.24V54.52H26.94V61.54H12.24V79H3.12V37.06ZM38.212 79.9C34.292 79.9 31.352 78.84 29.392 76.72C27.432 74.56 26.452 71.7 26.452 68.14V50.2H35.512V67.18C35.512 70.94 37.252 72.82 40.732 72.82C42.252 72.82 43.672 72.46 44.992 71.74C46.312 71.02 47.412 69.94 48.292 68.5V50.2H57.352V79H48.592V75.52C47.312 77 45.752 78.1 43.912 78.82C42.112 79.54 40.212 79.9 38.212 79.9ZM71.5261 79.9C68.1661 79.9 65.6061 78.98 63.8461 77.14C62.1261 75.26 61.2661 72.66 61.2661 69.34V56.74H57.0661V50.2H61.2661V41.56H70.3261V50.2H77.1061V56.74H70.3261V68.14C70.3261 69.82 70.6461 71.04 71.2861 71.8C71.9261 72.52 73.0661 72.88 74.7061 72.88C76.0261 72.88 77.2861 72.56 78.4861 71.92V78.7C76.6461 79.5 74.3261 79.9 71.5261 79.9ZM89.6363 79.9C85.7163 79.9 82.7763 78.84 80.8163 76.72C78.8563 74.56 77.8763 71.7 77.8763 68.14V50.2H86.9363V67.18C86.9363 70.94 88.6763 72.82 92.1563 72.82C93.6763 72.82 95.0963 72.46 96.4163 71.74C97.7363 71.02 98.8363 69.94 99.7163 68.5V50.2H108.776V79H100.016V75.52C98.7363 77 97.1763 78.1 95.3363 78.82C93.5363 79.54 91.6363 79.9 89.6363 79.9ZM110.89 50.2H119.65V54.34C120.81 52.94 122.43 51.88 124.51 51.16C126.59 50.4 128.95 50.02 131.59 50.02V56.92C128.83 56.92 126.39 57.34 124.27 58.18C122.19 59.02 120.75 60.3 119.95 62.02V79H110.89V50.2ZM147.801 79.9C142.281 79.9 137.941 78.58 134.781 75.94C131.621 73.26 130.041 69.52 130.041 64.72C130.041 59.96 131.441 56.2 134.241 53.44C137.081 50.68 141.121 49.3 146.361 49.3C149.801 49.3 152.721 49.94 155.121 51.22C157.521 52.5 159.341 54.28 160.581 56.56C161.821 58.8 162.441 61.34 162.441 64.18V67.84H138.681C139.321 71.52 142.761 73.36 149.001 73.36C150.841 73.36 152.741 73.2 154.701 72.88C156.661 72.56 158.361 72.12 159.801 71.56V77.92C158.401 78.52 156.601 79 154.401 79.36C152.201 79.72 150.001 79.9 147.801 79.9ZM153.861 61.96C153.741 60.04 153.021 58.56 151.701 57.52C150.381 56.44 148.561 55.9 146.241 55.9C143.961 55.9 142.161 56.44 140.841 57.52C139.521 58.6 138.801 60.08 138.681 61.96H153.861Z" fill="white"/>
<path d="M34.3589 107.734H27.3779V97.9639H34.3589V107.734ZM28.9302 106.472H32.8149V99.209H28.9302V106.472ZM38.8745 111.444H37.2891V96.5278H38.8745V111.444ZM41.5195 106.613C42.5543 106.613 43.4923 106.588 44.3334 106.539C45.1746 106.489 46.0545 106.389 46.9731 106.24L47.0976 107.51C46.1513 107.67 45.2465 107.781 44.3832 107.842C43.5255 107.903 42.5709 107.933 41.5195 107.933H40.5234V106.613H41.5195ZM46.1181 103.476H42.0424V107.103H40.5234V102.189H44.5991V99.3916H40.4985V98.0967H46.1181V103.476ZM52.8168 111.403H51.3227V96.5278H52.8168V111.403ZM51.7045 103.617H48.9238V102.33H51.7045V103.617ZM49.3803 110.656H47.936V96.835H49.3803V110.656ZM67.1493 104.571H53.536V103.359H67.1493V104.571ZM65.4725 108.888H56.7401V110.498H55.163V107.842H63.912V106.746H55.1464V105.601H65.4725V108.888ZM65.9374 111.229H55.163V110.116H65.9374V111.229ZM65.431 100.139H56.848V101.641H55.2875V99.0928H63.8539V98.0303H55.246V96.918H65.431V100.139ZM65.6967 102.38H55.2875V101.276H65.6967V102.38ZM74.9045 97.2251C75.6406 97.214 76.3018 97.3385 76.8884 97.5986C77.475 97.8532 77.9316 98.2157 78.2581 98.686C78.5901 99.1509 78.7561 99.6877 78.7561 100.296C78.7561 100.894 78.5901 101.428 78.2581 101.898C77.9316 102.369 77.475 102.734 76.8884 102.994C76.3018 103.254 75.6406 103.384 74.9045 103.384C74.163 103.384 73.5017 103.254 72.9207 102.994C72.3396 102.734 71.8831 102.369 71.551 101.898C71.219 101.428 71.053 100.894 71.053 100.296C71.053 99.6877 71.219 99.1509 71.551 98.686C71.8831 98.2157 72.3396 97.8532 72.9207 97.5986C73.5017 97.3385 74.163 97.214 74.9045 97.2251ZM74.9045 98.5034C74.4508 98.4924 74.0468 98.5615 73.6926 98.7109C73.344 98.8604 73.0728 99.0734 72.8792 99.3501C72.6855 99.6268 72.5886 99.9422 72.5886 100.296C72.5886 100.651 72.6855 100.966 72.8792 101.243C73.0728 101.514 73.344 101.724 73.6926 101.874C74.0468 102.017 74.4508 102.089 74.9045 102.089C75.3639 102.089 75.7706 102.017 76.1248 101.874C76.4789 101.724 76.7556 101.514 76.9548 101.243C77.1541 100.966 77.2537 100.651 77.2537 100.296C77.2537 99.9422 77.1541 99.6268 76.9548 99.3501C76.7556 99.0734 76.4789 98.8604 76.1248 98.7109C75.7761 98.5615 75.3694 98.4924 74.9045 98.5034ZM75.7761 110.963H74.199V104.995H75.7761V110.963ZM82.3753 111.411H80.8147V96.5444H82.3753V111.411ZM70.0071 104.53C71.8167 104.53 73.5377 104.494 75.1702 104.422C76.8027 104.35 78.3466 104.209 79.802 103.999L79.9016 105.169C78.5458 105.418 77.1513 105.587 75.718 105.675C74.2903 105.764 72.691 105.819 70.9202 105.841C70.7044 105.847 70.4692 105.85 70.2146 105.85L70.0071 104.53ZM90.864 100.271H83.4846V99.0015H90.864V100.271ZM87.1867 101.16C87.812 101.16 88.3682 101.306 88.8552 101.6C89.3477 101.887 89.7323 102.291 90.009 102.812C90.2857 103.332 90.424 103.927 90.424 104.596C90.424 105.26 90.2857 105.855 90.009 106.381C89.7323 106.901 89.3477 107.311 88.8552 107.609C88.3682 107.908 87.812 108.058 87.1867 108.058C86.5669 108.058 86.0108 107.908 85.5183 107.609C85.0313 107.311 84.6494 106.898 84.3728 106.373C84.1016 105.847 83.966 105.255 83.966 104.596C83.966 103.938 84.1016 103.346 84.3728 102.82C84.6494 102.294 85.0313 101.887 85.5183 101.6C86.0108 101.306 86.5669 101.16 87.1867 101.16ZM87.1867 102.479C86.8381 102.479 86.5227 102.571 86.2404 102.753C85.9637 102.931 85.7479 103.18 85.593 103.5C85.438 103.816 85.3605 104.181 85.3605 104.596C85.3605 105.006 85.438 105.371 85.593 105.692C85.7534 106.013 85.972 106.259 86.2487 106.431C86.5254 106.602 86.8381 106.688 87.1867 106.688C87.5409 106.688 87.8563 106.602 88.133 106.431C88.4152 106.259 88.6366 106.013 88.7971 105.692C88.9576 105.371 89.0378 105.006 89.0378 104.596C89.0378 104.181 88.9576 103.816 88.7971 103.5C88.6366 103.18 88.4152 102.931 88.133 102.753C87.8563 102.571 87.5409 102.479 87.1867 102.479ZM96.2512 111.403H94.7487V96.5278H96.2512V111.403ZM95.2468 104.015H92.5241V102.729H95.2468V104.015ZM93.0388 110.706H91.5529V96.8765H93.0388V110.706ZM87.9753 99.79H86.4147V96.9678H87.9753V99.79ZM112.349 111.403H110.755V96.5278H112.349V111.403ZM107.933 98.1299C107.933 99.6462 107.698 101.049 107.227 102.338C106.762 103.622 106.015 104.806 104.986 105.891C103.957 106.97 102.617 107.905 100.968 108.697L100.122 107.418C101.555 106.743 102.731 105.958 103.649 105.061C104.574 104.165 105.257 103.163 105.7 102.056C106.142 100.949 106.364 99.7264 106.364 98.3872V98.1299H107.933ZM107.045 99.3916H100.844V98.1299H107.045V99.3916ZM127.08 105.941H113.466V104.654H127.08V105.941ZM125.361 100.628H116.778V102.513H115.218V99.4663H123.784V98.1382H115.176V96.8765H125.361V100.628ZM125.668 103.251H115.218V102.015H125.668V103.251ZM121.045 105.318H119.493V102.621H121.045V105.318ZM125.444 111.295H123.859V108.24H114.985V106.979H125.444V111.295Z" fill="#E8E8E8"/>
<g filter="url(#filter0_f_6_115)">
<circle cx="23.5" cy="13.5" r="9.5" fill="white" fill-opacity="0.8"/>
</g>
<defs>
<filter id="filter0_f_6_115" x="10" y="0" width="27" height="27" filterUnits="userSpaceOnUse" color-interpolation-filters="sRGB">
<feFlood flood-opacity="0" result="BackgroundImageFix"/>
<feBlend mode="normal" in="SourceGraphic" in2="BackgroundImageFix" result="shape"/>
<feGaussianBlur stdDeviation="2" result="effect1_foregroundBlur_6_115"/>
</filter>
</defs>
</svg>
