<svg width="24" height="24" viewBox="0 0 24 24" fill="none" xmlns="http://www.w3.org/2000/svg">
<mask id="mask0_233_1108" style="mask-type:alpha" maskUnits="userSpaceOnUse" x="0" y="0" width="24" height="24">
<rect width="24" height="24" fill="#D9D9D9"/>
</mask>
<g mask="url(#mask0_233_1108)">
<path d="M5.59998 18.3579H9.16924V12.8421C9.16924 12.5617 9.26163 12.3268 9.44642 12.1371C9.6312 11.9475 9.86018 11.8526 10.1334 11.8526H13.8666C14.1398 11.8526 14.3688 11.9475 14.5536 12.1371C14.7384 12.3268 14.8308 12.5617 14.8308 12.8421V18.3579H18.4V8.67368C18.4 8.61753 18.3881 8.56666 18.3641 8.52104C18.3402 8.47543 18.3077 8.43508 18.2667 8.39999L12.1949 3.71576C12.1402 3.66664 12.0752 3.64208 12 3.64208C11.9248 3.64208 11.8598 3.66664 11.8051 3.71576L5.73331 8.39999C5.6923 8.43508 5.65982 8.47543 5.63587 8.52104C5.61194 8.56666 5.59998 8.61753 5.59998 8.67368V18.3579ZM4 18.3579V8.67368C4 8.36034 4.06829 8.0635 4.20488 7.78316C4.34147 7.50281 4.53027 7.27194 4.77128 7.09054L10.8431 2.3958C11.18 2.13193 11.5651 2 11.9983 2C12.4316 2 12.8178 2.13193 13.1569 2.3958L19.2287 7.09054C19.4697 7.27194 19.6585 7.50281 19.7951 7.78316C19.9317 8.0635 20 8.36034 20 8.67368V18.3579C20 18.8056 19.8424 19.1912 19.5272 19.5147C19.212 19.8382 18.8363 20 18.4 20H14.1949C13.9217 20 13.6928 19.9052 13.508 19.7155C13.3232 19.5259 13.2308 19.2909 13.2308 19.0105V13.4947H10.7692V19.0105C10.7692 19.2909 10.6768 19.5259 10.492 19.7155C10.3072 19.9052 10.0783 20 9.80511 20H5.59998C5.16375 20 4.78803 19.8382 4.47283 19.5147C4.15761 19.1912 4 18.8056 4 18.3579Z" fill="#1C1B1F"/>
</g>
</svg>
