<svg width="197" height="75" viewBox="0 0 197 75" fill="none" xmlns="http://www.w3.org/2000/svg">
<path d="M12.6 54.75C10.6667 54.75 8.65 54.55 6.55 54.15C4.45 53.7833 2.78333 53.25 1.55 52.55V46.1C2.91667 46.9 4.55 47.5667 6.45 48.1C8.38333 48.6 10.15 48.85 11.75 48.85C12.9167 48.85 13.7667 48.7667 14.3 48.6C14.8333 48.4333 15.1 48.1 15.1 47.6C15.1 47.2 14.9167 46.8833 14.55 46.65C14.2167 46.3833 13.5833 46.1167 12.65 45.85C11.75 45.55 10.7 45.2333 9.5 44.9C7.46667 44.3 5.86667 43.6833 4.7 43.05C3.53333 42.4167 2.66667 41.6167 2.1 40.65C1.53333 39.6833 1.25 38.4667 1.25 37C1.25 34.4 2.26667 32.4667 4.3 31.2C6.36667 29.9 9.18333 29.25 12.75 29.25C14.4833 29.25 16.3 29.4333 18.2 29.8C20.1333 30.1667 21.5833 30.65 22.55 31.25V37.6C21.55 36.9333 20.2167 36.3833 18.55 35.95C16.9167 35.5167 15.3833 35.3 13.95 35.3C12.8167 35.3 11.9333 35.4167 11.3 35.65C10.6667 35.85 10.35 36.2167 10.35 36.75C10.35 37.25 10.6667 37.6333 11.3 37.9C11.9333 38.1667 13.0667 38.5 14.7 38.9C15.7667 39.1667 16.2167 39.2833 16.05 39.25C18.1833 39.8167 19.8333 40.45 21 41.15C22.1667 41.85 22.9833 42.6833 23.45 43.65C23.95 44.5833 24.2 45.7833 24.2 47.25C24.2 49.55 23.2 51.3833 21.2 52.75C19.2333 54.0833 16.3667 54.75 12.6 54.75Z" fill="#0094FF"/>
<path d="M28.25 30H36.75V32.4C38.9833 30.3 41.8167 29.25 45.25 29.25C47.75 29.25 49.9667 29.7833 51.9 30.85C53.8333 31.8833 55.3333 33.3667 56.4 35.3C57.4667 37.2 58 39.4167 58 41.95C58 44.45 57.4667 46.6833 56.4 48.65C55.3333 50.5833 53.8333 52.0833 51.9 53.15C50 54.2167 47.7833 54.75 45.25 54.75C43.65 54.75 42.1167 54.5 40.65 54C39.2167 53.5333 38.0167 52.8833 37.05 52.05V64.95H28.25V30ZM42.95 47.9C44.75 47.9 46.2 47.3667 47.3 46.3C48.4 45.2333 48.95 43.7833 48.95 41.95C48.95 40.1167 48.4 38.6833 47.3 37.65C46.2 36.5833 44.75 36.05 42.95 36.05C41.6167 36.05 40.4167 36.4 39.35 37.1C38.2833 37.7667 37.5167 38.6833 37.05 39.85V44.1C37.5167 45.2667 38.2833 46.2 39.35 46.9C40.4167 47.5667 41.6167 47.9 42.95 47.9Z" fill="#0094FF"/>
<path d="M76.35 54.75C71.65 54.75 67.95 53.65 65.25 51.45C62.5833 49.25 61.25 46.1333 61.25 42.1C61.25 38.1333 62.4333 35 64.8 32.7C67.2 30.4 70.65 29.25 75.15 29.25C78.0167 29.25 80.4667 29.8 82.5 30.9C84.5667 31.9667 86.1167 33.45 87.15 35.35C88.2167 37.2167 88.75 39.3333 88.75 41.7V44.95H69.6C69.9333 46.2833 70.7667 47.25 72.1 47.85C73.4333 48.45 75.25 48.75 77.55 48.75C79.1167 48.75 80.7167 48.6167 82.35 48.35C84.0167 48.0833 85.45 47.7167 86.65 47.25V53.05C85.4167 53.55 83.8667 53.95 82 54.25C80.1667 54.5833 78.2833 54.75 76.35 54.75ZM80.45 39.45C80.3167 38.15 79.7833 37.1333 78.85 36.4C77.9167 35.6667 76.6333 35.3 75 35.3C73.4 35.3 72.1333 35.6833 71.2 36.45C70.2667 37.1833 69.7333 38.1833 69.6 39.45H80.45Z" fill="#0094FF"/>
<path d="M105.55 54.75C101.15 54.75 97.6667 53.65 95.1 51.45C92.5333 49.25 91.25 46.1167 91.25 42.05C91.25 37.9833 92.5333 34.8333 95.1 32.6C97.7 30.3667 101.2 29.25 105.6 29.25C107.567 29.25 109.4 29.45 111.1 29.85C112.833 30.2167 114.267 30.75 115.4 31.45V38.3C113.367 36.8333 110.683 36.1 107.35 36.1C105.217 36.1 103.5 36.6 102.2 37.6C100.933 38.5667 100.3 40.05 100.3 42.05C100.3 44.0833 100.933 45.5833 102.2 46.55C103.467 47.4833 105.167 47.95 107.3 47.95C110.533 47.95 113.333 47.1833 115.7 45.65V52.45C113.167 53.9833 109.783 54.75 105.55 54.75Z" fill="#0094FF"/>
<path d="M129.65 54.75C126.683 54.75 124.433 53.9333 122.9 52.3C121.4 50.6333 120.65 48.3667 120.65 45.5V36.1H117.25V30H120.65V22.8H129.45V30H134.95V36.1H129.45V44.3C129.45 45.6 129.683 46.5333 130.15 47.1C130.65 47.6667 131.517 47.95 132.75 47.95C133.85 47.95 134.95 47.65 136.05 47.05V53.6C135.183 54 134.25 54.2833 133.25 54.45C132.283 54.65 131.083 54.75 129.65 54.75Z" fill="#0094FF"/>
<path d="M153.05 54.75C150.083 54.75 147.483 54.2167 145.25 53.15C143.017 52.05 141.283 50.55 140.05 48.65C138.85 46.7167 138.25 44.5 138.25 42C138.25 39.5 138.85 37.3 140.05 35.4C141.283 33.4667 143.017 31.9667 145.25 30.9C147.483 29.8 150.083 29.25 153.05 29.25C156.017 29.25 158.617 29.8 160.85 30.9C163.083 31.9667 164.8 33.4667 166 35.4C167.233 37.3 167.85 39.5 167.85 42C167.85 44.5 167.233 46.7167 166 48.65C164.8 50.55 163.083 52.05 160.85 53.15C158.617 54.2167 156.017 54.75 153.05 54.75ZM153.05 47.9C154.817 47.9 156.217 47.3833 157.25 46.35C158.317 45.2833 158.85 43.8333 158.85 42C158.85 40.1667 158.317 38.7333 157.25 37.7C156.217 36.6333 154.817 36.1 153.05 36.1C151.283 36.1 149.867 36.6333 148.8 37.7C147.767 38.7333 147.25 40.1667 147.25 42C147.25 43.8333 147.767 45.2833 148.8 46.35C149.867 47.3833 151.283 47.9 153.05 47.9Z" fill="#0094FF"/>
<path d="M174.5 56.75V44.25H187V56.75H174.5Z" fill="#0094FF"/>
</svg>
