<svg width="22" height="26" viewBox="0 0 22 26" fill="none" xmlns="http://www.w3.org/2000/svg">
<mask id="mask0_233_1174" style="mask-type:alpha" maskUnits="userSpaceOnUse" x="0" y="0" width="22" height="26">
<rect y="0.5" width="22" height="25" fill="#D9D9D9"/>
</mask>
<g mask="url(#mask0_233_1174)">
<path d="M18.6667 5H14.4867C14.0667 3.84 12.9667 3 11.6667 3C10.3667 3 9.26675 3.84 8.84675 5H4.66675C3.56675 5 2.66675 5.9 2.66675 7V21C2.66675 22.1 3.56675 23 4.66675 23H18.6667C19.7667 23 20.6667 22.1 20.6667 21V7C20.6667 5.9 19.7667 5 18.6667 5ZM11.6667 5C12.2167 5 12.6667 5.45 12.6667 6C12.6667 6.55 12.2167 7 11.6667 7C11.1167 7 10.6667 6.55 10.6667 6C10.6667 5.45 11.1167 5 11.6667 5ZM9.66675 19L5.66675 15L7.07675 13.59L9.66675 16.17L16.2567 9.58L17.6667 11L9.66675 19Z" fill="black"/>
</g>
</svg>
