<svg width="206" height="117" viewBox="0 0 206 117" fill="none" xmlns="http://www.w3.org/2000/svg">
<path d="M15.72 79.9C13.16 79.9 10.62 79.66 8.1 79.18C5.58 78.7 3.52 78.06 1.92 77.26V69.22C4.04 70.26 6.24 71.04 8.52 71.56C10.8 72.08 12.98 72.34 15.06 72.34C17.38 72.34 19.14 71.94 20.34 71.14C21.54 70.34 22.14 69.22 22.14 67.78C22.14 66.74 21.84 65.86 21.24 65.14C20.64 64.42 19.76 63.78 18.6 63.22C17.48 62.62 15.74 61.84 13.38 60.88C9.46 59.28 6.62 57.5 4.86 55.54C3.1 53.54 2.22 51.08 2.22 48.16C2.22 45.8 2.86 43.72 4.14 41.92C5.42 40.08 7.22 38.66 9.54 37.66C11.86 36.66 14.54 36.16 17.58 36.16C20.06 36.16 22.26 36.36 24.18 36.76C26.1 37.16 27.98 37.78 29.82 38.62V46.42C26.3 44.66 22.78 43.78 19.26 43.78C17.02 43.78 15.26 44.18 13.98 44.98C12.7 45.74 12.06 46.84 12.06 48.28C12.06 49.32 12.36 50.18 12.96 50.86C13.56 51.54 14.4 52.14 15.48 52.66C16.56 53.18 18.32 53.94 20.76 54.94C23.6 56.14 25.82 57.3 27.42 58.42C29.02 59.5 30.2 60.8 30.96 62.32C31.72 63.8 32.1 65.64 32.1 67.84C32.1 71.64 30.72 74.6 27.96 76.72C25.24 78.84 21.16 79.9 15.72 79.9ZM42.9722 79.9C39.6122 79.9 37.0522 78.98 35.2922 77.14C33.5722 75.26 32.7122 72.66 32.7122 69.34V56.74H28.5122V50.2H32.7122V41.56H41.7722V50.2H48.5522V56.74H41.7722V68.14C41.7722 69.82 42.0922 71.04 42.7322 71.8C43.3722 72.52 44.5122 72.88 46.1522 72.88C47.4722 72.88 48.7322 72.56 49.9322 71.92V78.7C48.0922 79.5 45.7722 79.9 42.9722 79.9ZM66.4753 79.9C60.9553 79.9 56.6153 78.58 53.4553 75.94C50.2953 73.26 48.7153 69.52 48.7153 64.72C48.7153 59.96 50.1153 56.2 52.9153 53.44C55.7553 50.68 59.7953 49.3 65.0353 49.3C68.4753 49.3 71.3953 49.94 73.7953 51.22C76.1953 52.5 78.0153 54.28 79.2553 56.56C80.4953 58.8 81.1153 61.34 81.1153 64.18V67.84H57.3553C57.9953 71.52 61.4353 73.36 67.6753 73.36C69.5153 73.36 71.4153 73.2 73.3753 72.88C75.3353 72.56 77.0353 72.12 78.4753 71.56V77.92C77.0753 78.52 75.2753 79 73.0753 79.36C70.8753 79.72 68.6753 79.9 66.4753 79.9ZM72.5353 61.96C72.4153 60.04 71.6953 58.56 70.3753 57.52C69.0553 56.44 67.2353 55.9 64.9153 55.9C62.6353 55.9 60.8353 56.44 59.5153 57.52C58.1953 58.6 57.4753 60.08 57.3553 61.96H72.5353ZM92.6663 79.9C89.1463 79.9 86.2663 79.02 84.0263 77.26C81.8263 75.46 80.7263 73.02 80.7263 69.94C80.7263 66.74 81.7863 64.26 83.9063 62.5C86.0263 60.7 89.0263 59.8 92.9063 59.8C94.6263 59.8 96.2663 59.98 97.8263 60.34C99.3863 60.7 100.766 61.2 101.966 61.84V61.12C101.966 59.32 101.326 58 100.046 57.16C98.7663 56.32 96.8063 55.9 94.1663 55.9C90.6463 55.9 87.4063 56.56 84.4463 57.88V51.28C85.7263 50.72 87.3863 50.26 89.4263 49.9C91.4663 49.5 93.5063 49.3 95.5463 49.3C100.746 49.3 104.626 50.38 107.186 52.54C109.746 54.66 111.026 57.64 111.026 61.48V79H102.506V76.36C100.066 78.72 96.7863 79.9 92.6663 79.9ZM95.1263 73.9C96.6063 73.9 97.9463 73.62 99.1463 73.06C100.346 72.5 101.286 71.72 101.966 70.72V67.84C99.9263 66.48 97.6863 65.8 95.2463 65.8C93.5663 65.8 92.2663 66.16 91.3463 66.88C90.4663 67.56 90.0263 68.58 90.0263 69.94C90.0263 71.22 90.4663 72.2 91.3463 72.88C92.2263 73.56 93.4863 73.9 95.1263 73.9ZM126.864 79.9C123.904 79.9 121.264 79.28 118.944 78.04C116.664 76.76 114.864 74.98 113.544 72.7C112.264 70.38 111.624 67.7 111.624 64.66C111.624 61.66 112.264 59 113.544 56.68C114.824 54.36 116.624 52.56 118.944 51.28C121.264 49.96 123.904 49.3 126.864 49.3C129.024 49.3 131.004 49.6 132.804 50.2C134.604 50.8 136.124 51.66 137.364 52.78V34.66H146.424V79H137.664V75.88C136.184 77.28 134.564 78.3 132.804 78.94C131.084 79.58 129.104 79.9 126.864 79.9ZM129.204 72.88C131.084 72.88 132.744 72.38 134.184 71.38C135.664 70.38 136.724 69.04 137.364 67.36V61.9C136.804 60.26 135.764 58.94 134.244 57.94C132.764 56.9 131.084 56.38 129.204 56.38C126.764 56.38 124.764 57.14 123.204 58.66C121.684 60.18 120.924 62.18 120.924 64.66C120.924 67.14 121.684 69.14 123.204 70.66C124.764 72.14 126.764 72.88 129.204 72.88ZM153.506 45.76C152.106 45.76 150.926 45.3 149.966 44.38C149.006 43.46 148.526 42.3 148.526 40.9C148.526 39.54 149.006 38.4 149.966 37.48C150.926 36.52 152.106 36.04 153.506 36.04C154.906 36.04 156.086 36.52 157.046 37.48C158.006 38.4 158.486 39.54 158.486 40.9C158.486 42.3 158.006 43.46 157.046 44.38C156.086 45.3 154.906 45.76 153.506 45.76ZM148.946 50.2H158.066V79H148.946V50.2ZM160.498 34.66H169.558V79H160.498V34.66ZM179.57 90.88C178.37 90.88 177.13 90.8 175.85 90.64C174.61 90.48 173.67 90.26 173.03 89.98V83.2C174.19 83.64 175.47 83.86 176.87 83.86C178.31 83.86 179.39 83.54 180.11 82.9C180.87 82.26 181.49 81.26 181.97 79.9L182.93 77.44L170.45 50.2H179.57L187.73 70.06L195.47 50.2H204.53L192.29 80.98C190.93 84.38 189.25 86.88 187.25 88.48C185.25 90.08 182.69 90.88 179.57 90.88Z" fill="white"/>
<path d="M40.1113 104.953H26.5479V103.65H40.1113V104.953ZM34.0767 111.411H32.5078V104.688H34.0767V111.411ZM31.4868 98.8022H27.627V97.5322H31.4868V98.8022ZM32.5078 98.1382C32.5078 98.7026 32.494 99.2505 32.4663 99.7817C32.4386 100.313 32.3667 100.966 32.2505 101.741C32.1398 102.515 31.96 103.354 31.7109 104.256L30.1504 103.999C30.3994 103.146 30.582 102.352 30.6982 101.616C30.8145 100.88 30.8864 100.269 30.9141 99.7817C30.9417 99.2948 30.9611 98.7469 30.9722 98.1382V97.5322H32.5078V98.1382ZM37.7041 98.8022H33.5869V97.5322H37.7041V98.8022ZM38.6006 98.3125C38.6006 98.8825 38.5895 99.4276 38.5674 99.9478C38.5452 100.468 38.4871 101.099 38.3931 101.84C38.3045 102.576 38.1579 103.373 37.9531 104.231L36.4092 103.99C36.6029 103.171 36.744 102.413 36.8325 101.716C36.9211 101.013 36.9764 100.415 36.9985 99.9229C37.0207 99.4303 37.0317 98.8936 37.0317 98.3125V97.5322H38.6006V98.3125ZM47.1806 98.4121C47.1806 99.2145 46.9288 99.9505 46.4252 100.62C45.9217 101.284 45.2327 101.835 44.3583 102.272C43.484 102.704 42.4934 102.997 41.3867 103.152L40.8139 101.907C41.7491 101.791 42.593 101.558 43.3456 101.209C44.1038 100.861 44.6987 100.443 45.1303 99.9561C45.562 99.4635 45.7778 98.9489 45.7778 98.4121V97.9888H47.1806V98.4121ZM47.8779 98.4121C47.8779 98.9489 48.0965 99.4635 48.5336 99.9561C48.9708 100.443 49.5712 100.861 50.3349 101.209C51.0986 101.558 51.9453 101.791 52.8749 101.907L52.269 103.152C51.1733 102.997 50.1855 102.704 49.3056 102.272C48.4257 101.835 47.7312 101.284 47.2221 100.62C46.7185 99.9505 46.4667 99.2145 46.4667 98.4121V97.9888H47.8779V98.4121ZM52.4018 98.5117H41.2871V97.2417H52.4018V98.5117ZM53.6469 105.393H40.0336V104.106H53.6469V105.393ZM47.7534 108.273H46.1928V104.903H47.7534V108.273ZM52.1362 111.112H41.727V109.809H52.1362V111.112ZM43.3041 110.282H41.727V106.837H43.3041V110.282ZM65.8793 111.403H64.2938V96.5278H65.8793V111.403ZM62.8412 100.164H53.8846V98.8936H62.8412V100.164ZM58.392 101.251C59.1114 101.251 59.7533 101.398 60.3178 101.691C60.8877 101.984 61.3304 102.394 61.6459 102.919C61.9668 103.445 62.1273 104.04 62.1273 104.704C62.1273 105.374 61.9668 105.971 61.6459 106.497C61.3304 107.023 60.8877 107.432 60.3178 107.726C59.7533 108.019 59.1114 108.166 58.392 108.166C57.6781 108.166 57.0334 108.019 56.4579 107.726C55.8879 107.432 55.4424 107.023 55.1215 106.497C54.806 105.971 54.6483 105.374 54.6483 104.704C54.6483 104.04 54.806 103.445 55.1215 102.919C55.4424 102.394 55.8879 101.984 56.4579 101.691C57.0334 101.398 57.6781 101.251 58.392 101.251ZM58.392 102.554C57.9603 102.554 57.573 102.646 57.2299 102.828C56.8923 103.005 56.6267 103.257 56.433 103.583C56.2393 103.91 56.1425 104.284 56.1425 104.704C56.1425 105.13 56.2393 105.504 56.433 105.825C56.6267 106.146 56.8923 106.397 57.2299 106.58C57.573 106.757 57.9603 106.846 58.392 106.846C58.8236 106.846 59.2082 106.757 59.5458 106.58C59.8833 106.397 60.1462 106.146 60.3344 105.825C60.5225 105.504 60.6166 105.13 60.6166 104.704C60.6166 104.284 60.5225 103.91 60.3344 103.583C60.1462 103.257 59.8833 103.005 59.5458 102.828C59.2082 102.646 58.8236 102.554 58.392 102.554ZM59.1473 99.6821H57.5619V96.6938H59.1473V99.6821ZM82.3836 111.403H80.7898V96.5278H82.3836V111.403ZM77.9675 98.1299C77.9675 99.6462 77.7323 101.049 77.262 102.338C76.7971 103.622 76.0501 104.806 75.0208 105.891C73.9915 106.97 72.6523 107.905 71.0032 108.697L70.1565 107.418C71.5898 106.743 72.7657 105.958 73.6843 105.061C74.6085 104.165 75.2919 103.163 75.7346 102.056C76.1773 100.949 76.3987 99.7264 76.3987 98.3872V98.1299H77.9675ZM77.0794 99.3916H70.8787V98.1299H77.0794V99.3916ZM97.1145 105.941H83.5012V104.654H97.1145V105.941ZM95.3962 100.628H86.8132V102.513H85.2526V99.4663H93.819V98.1382H85.2111V96.8765H95.3962V100.628ZM95.7033 103.251H85.2526V102.015H95.7033V103.251ZM91.0798 105.318H89.5275V102.621H91.0798V105.318ZM95.4792 111.295H93.8937V108.24H85.0202V106.979H95.4792V111.295Z" fill="#E8E8E8"/>
<g filter="url(#filter0_f_6_114)">
<circle cx="23.5" cy="13.5" r="9.5" fill="white" fill-opacity="0.8"/>
</g>
<defs>
<filter id="filter0_f_6_114" x="10" y="0" width="27" height="27" filterUnits="userSpaceOnUse" color-interpolation-filters="sRGB">
<feFlood flood-opacity="0" result="BackgroundImageFix"/>
<feBlend mode="normal" in="SourceGraphic" in2="BackgroundImageFix" result="shape"/>
<feGaussianBlur stdDeviation="2" result="effect1_foregroundBlur_6_114"/>
</filter>
</defs>
</svg>
