<svg width="178" height="117" viewBox="0 0 178 117" fill="none" xmlns="http://www.w3.org/2000/svg">
<path d="M1.92 37.06H11.64L23.16 66.88L34.74 37.06H44.4L27.66 79H18.72L1.92 37.06ZM46.3219 45.76C44.9219 45.76 43.7419 45.3 42.7819 44.38C41.8219 43.46 41.3419 42.3 41.3419 40.9C41.3419 39.54 41.8219 38.4 42.7819 37.48C43.7419 36.52 44.9219 36.04 46.3219 36.04C47.7219 36.04 48.9019 36.52 49.8619 37.48C50.8219 38.4 51.3019 39.54 51.3019 40.9C51.3019 42.3 50.8219 43.46 49.8619 44.38C48.9019 45.3 47.7219 45.76 46.3219 45.76ZM41.7619 50.2H50.8819V79H41.7619V50.2ZM52.5937 50.2H60.2137L68.0137 70.12L75.8137 50.2H83.4337L71.5537 79H64.4737L52.5937 50.2ZM90.4805 45.76C89.0805 45.76 87.9005 45.3 86.9405 44.38C85.9805 43.46 85.5005 42.3 85.5005 40.9C85.5005 39.54 85.9805 38.4 86.9405 37.48C87.9005 36.52 89.0805 36.04 90.4805 36.04C91.8805 36.04 93.0605 36.52 94.0205 37.48C94.9805 38.4 95.4605 39.54 95.4605 40.9C95.4605 42.3 94.9805 43.46 94.0205 44.38C93.0605 45.3 91.8805 45.76 90.4805 45.76ZM85.9205 50.2H95.0405V79H85.9205V50.2ZM111.512 79.9C108.552 79.9 105.912 79.28 103.592 78.04C101.312 76.76 99.5123 74.98 98.1923 72.7C96.9123 70.38 96.2723 67.7 96.2723 64.66C96.2723 61.66 96.9123 59 98.1923 56.68C99.4723 54.36 101.272 52.56 103.592 51.28C105.912 49.96 108.552 49.3 111.512 49.3C113.672 49.3 115.652 49.6 117.452 50.2C119.252 50.8 120.772 51.66 122.012 52.78V34.66H131.072V79H122.312V75.88C120.832 77.28 119.212 78.3 117.452 78.94C115.732 79.58 113.752 79.9 111.512 79.9ZM113.852 72.88C115.732 72.88 117.392 72.38 118.832 71.38C120.312 70.38 121.372 69.04 122.012 67.36V61.9C121.452 60.26 120.412 58.94 118.892 57.94C117.412 56.9 115.732 56.38 113.852 56.38C111.412 56.38 109.412 57.14 107.852 58.66C106.332 60.18 105.572 62.18 105.572 64.66C105.572 67.14 106.332 69.14 107.852 70.66C109.412 72.14 111.412 72.88 113.852 72.88ZM133.175 34.66H142.235V79H133.175V34.66ZM152.246 90.88C151.046 90.88 149.806 90.8 148.526 90.64C147.286 90.48 146.346 90.26 145.706 89.98V83.2C146.866 83.64 148.146 83.86 149.546 83.86C150.986 83.86 152.066 83.54 152.786 82.9C153.546 82.26 154.166 81.26 154.646 79.9L155.606 77.44L143.126 50.2H152.246L160.406 70.06L168.146 50.2H177.206L164.966 80.98C163.606 84.38 161.926 86.88 159.926 88.48C157.926 90.08 155.366 90.88 152.246 90.88Z" fill="white"/>
<path d="M30.8228 99.3833C30.8228 100.158 30.6872 100.919 30.416 101.666C30.1504 102.413 29.7547 103.085 29.229 103.683C28.7033 104.275 28.0752 104.723 27.3447 105.028L26.4897 103.808C27.1372 103.525 27.6934 103.144 28.1582 102.662C28.623 102.181 28.9744 101.658 29.2124 101.093C29.4559 100.523 29.5776 99.9533 29.5776 99.3833V97.4575H30.8228V99.3833ZM31.0884 99.3833C31.0884 99.9367 31.2046 100.473 31.437 100.994C31.675 101.514 32.0181 101.984 32.4663 102.405C32.9146 102.825 33.4486 103.155 34.0684 103.393L33.2383 104.596C32.5189 104.314 31.9019 103.91 31.3872 103.384C30.8781 102.853 30.4935 102.242 30.2334 101.55C29.9788 100.858 29.8516 100.136 29.8516 99.3833V97.4575H31.0884V99.3833ZM39.2314 105.7H37.729V96.5444H39.2314V105.7ZM38.1938 101.716H35.5044V100.421H38.1938V101.716ZM36.0024 105.235H34.5332V96.8184H36.0024V105.235ZM34.2593 105.991C35.2886 105.991 36.1823 106.096 36.9404 106.306C37.7041 106.516 38.2907 106.826 38.7002 107.236C39.1097 107.64 39.3145 108.124 39.3145 108.688C39.3145 109.247 39.1097 109.726 38.7002 110.125C38.2907 110.528 37.7041 110.838 36.9404 111.054C36.1823 111.276 35.2886 111.386 34.2593 111.386C33.2244 111.386 32.3252 111.276 31.5615 111.054C30.8034 110.838 30.2223 110.528 29.8184 110.125C29.4144 109.726 29.2124 109.247 29.2124 108.688C29.2124 108.124 29.4144 107.64 29.8184 107.236C30.2223 106.826 30.8034 106.516 31.5615 106.306C32.3252 106.096 33.2244 105.991 34.2593 105.991ZM34.2593 107.186C33.5454 107.186 32.9256 107.244 32.3999 107.36C31.8742 107.471 31.473 107.643 31.1963 107.875C30.9251 108.102 30.7896 108.373 30.7896 108.688C30.7896 109.004 30.9251 109.272 31.1963 109.494C31.473 109.715 31.8714 109.884 32.3916 110C32.9118 110.116 33.5343 110.174 34.2593 110.174C34.9787 110.174 35.5985 110.116 36.1187 110C36.6388 109.884 37.0373 109.715 37.314 109.494C37.5962 109.272 37.7373 109.004 37.7373 108.688C37.7373 108.373 37.5962 108.102 37.314 107.875C37.0373 107.643 36.6361 107.471 36.1104 107.36C35.5846 107.244 34.9676 107.186 34.2593 107.186ZM44.3251 99.3833C44.3251 100.158 44.1896 100.919 43.9184 101.666C43.6528 102.413 43.2571 103.085 42.7314 103.683C42.2057 104.275 41.5776 104.723 40.8471 105.028L39.9921 103.808C40.6396 103.525 41.1957 103.144 41.6606 102.662C42.1254 102.181 42.4768 101.658 42.7148 101.093C42.9583 100.523 43.08 99.9533 43.08 99.3833V97.4575H44.3251V99.3833ZM44.5908 99.3833C44.5908 99.9367 44.707 100.473 44.9394 100.994C45.1773 101.514 45.5204 101.984 45.9687 102.405C46.4169 102.825 46.9509 103.155 47.5707 103.393L46.7407 104.596C46.0213 104.314 45.4042 103.91 44.8896 103.384C44.3805 102.853 43.9959 102.242 43.7358 101.55C43.4812 100.858 43.3539 100.136 43.3539 99.3833V97.4575H44.5908V99.3833ZM52.7338 105.7H51.2314V96.5444H52.7338V105.7ZM51.6962 101.716H49.0068V100.421H51.6962V101.716ZM49.5048 105.235H48.0356V96.8184H49.5048V105.235ZM47.7617 105.991C48.791 105.991 49.6847 106.096 50.4428 106.306C51.2065 106.516 51.7931 106.826 52.2026 107.236C52.6121 107.64 52.8168 108.124 52.8168 108.688C52.8168 109.247 52.6121 109.726 52.2026 110.125C51.7931 110.528 51.2065 110.838 50.4428 111.054C49.6847 111.276 48.791 111.386 47.7617 111.386C46.7268 111.386 45.8276 111.276 45.0639 111.054C44.3058 110.838 43.7247 110.528 43.3207 110.125C42.9168 109.726 42.7148 109.247 42.7148 108.688C42.7148 108.124 42.9168 107.64 43.3207 107.236C43.7247 106.826 44.3058 106.516 45.0639 106.306C45.8276 106.096 46.7268 105.991 47.7617 105.991ZM47.7617 107.186C47.0478 107.186 46.428 107.244 45.9023 107.36C45.3766 107.471 44.9754 107.643 44.6987 107.875C44.4275 108.102 44.2919 108.373 44.2919 108.688C44.2919 109.004 44.4275 109.272 44.6987 109.494C44.9754 109.715 45.3738 109.884 45.894 110C46.4142 110.116 47.0367 110.174 47.7617 110.174C48.4811 110.174 49.1009 110.116 49.621 110C50.1412 109.884 50.5397 109.715 50.8163 109.494C51.0986 109.272 51.2397 109.004 51.2397 108.688C51.2397 108.373 51.0986 108.102 50.8163 107.875C50.5397 107.643 50.1384 107.471 49.6127 107.36C49.087 107.244 48.47 107.186 47.7617 107.186ZM65.1405 111.403H63.58V96.5278H65.1405V111.403ZM67.5394 103.866H64.7836V102.562H67.5394V103.866ZM62.285 100.147H53.4696V98.8604H62.285V100.147ZM57.9437 101.251C58.6521 101.251 59.2857 101.398 59.8446 101.691C60.4091 101.984 60.849 102.394 61.1644 102.919C61.4854 103.445 61.6459 104.04 61.6459 104.704C61.6459 105.374 61.4854 105.971 61.1644 106.497C60.849 107.023 60.4091 107.432 59.8446 107.726C59.2857 108.019 58.6521 108.166 57.9437 108.166C57.2299 108.166 56.5935 108.019 56.0345 107.726C55.4756 107.432 55.0357 107.023 54.7147 106.497C54.3993 105.971 54.2416 105.374 54.2416 104.704C54.2416 104.04 54.3993 103.445 54.7147 102.919C55.0357 102.394 55.4756 101.984 56.0345 101.691C56.5935 101.398 57.2299 101.251 57.9437 101.251ZM57.9437 102.554C57.5232 102.554 57.1469 102.646 56.8148 102.828C56.4828 103.005 56.2199 103.257 56.0262 103.583C55.8381 103.91 55.744 104.284 55.744 104.704C55.744 105.13 55.8381 105.504 56.0262 105.825C56.2199 106.146 56.4828 106.397 56.8148 106.58C57.1469 106.757 57.5232 106.846 57.9437 106.846C58.3643 106.846 58.7406 106.757 59.0726 106.58C59.4047 106.397 59.6648 106.146 59.8529 105.825C60.0411 105.504 60.1351 105.13 60.1351 104.704C60.1351 104.284 60.0411 103.91 59.8529 103.583C59.6648 103.257 59.4047 103.005 59.0726 102.828C58.7406 102.646 58.3643 102.554 57.9437 102.554ZM58.7157 99.4082H57.1469V96.7271H58.7157V99.4082ZM79.8382 111.403H78.3441V96.5278H79.8382V111.403ZM75.5965 103.783H71.9691V102.513H75.5965V103.783ZM76.7005 110.689H75.2064V96.9097H76.7005V110.689ZM73.5047 98.3872C73.5047 99.7651 73.3166 101.052 72.9403 102.247C72.5695 103.437 71.9691 104.538 71.139 105.551C70.3089 106.563 69.2326 107.457 67.91 108.232L67.0052 107.103C68.1562 106.422 69.0998 105.656 69.8358 104.804C70.5718 103.946 71.1141 103.011 71.4627 101.998C71.8113 100.98 71.9857 99.8758 71.9857 98.686V98.3872H73.5047ZM72.5418 99.6738H67.7025V98.3872H72.5418V99.6738ZM95.8859 111.403H94.2922V96.5278H95.8859V111.403ZM91.4699 98.1299C91.4699 99.6462 91.2347 101.049 90.7644 102.338C90.2995 103.622 89.5524 104.806 88.5231 105.891C87.4938 106.97 86.1547 107.905 84.5056 108.697L83.6589 107.418C85.0922 106.743 86.2681 105.958 87.1867 105.061C88.1109 104.165 88.7943 103.163 89.237 102.056C89.6797 100.949 89.9011 99.7264 89.9011 98.3872V98.1299H91.4699ZM90.5817 99.3916H84.3811V98.1299H90.5817V99.3916ZM110.617 105.941H97.0036V104.654H110.617V105.941ZM108.899 100.628H100.316V102.513H98.755V99.4663H107.321V98.1382H98.7135V96.8765H108.899V100.628ZM109.206 103.251H98.755V102.015H109.206V103.251ZM104.582 105.318H103.03V102.621H104.582V105.318ZM108.982 111.295H107.396V108.24H98.5226V106.979H108.982V111.295Z" fill="#E8E8E8"/>
<g filter="url(#filter0_f_6_113)">
<circle cx="23.5" cy="13.5" r="9.5" fill="white" fill-opacity="0.8"/>
</g>
<defs>
<filter id="filter0_f_6_113" x="10" y="0" width="27" height="27" filterUnits="userSpaceOnUse" color-interpolation-filters="sRGB">
<feFlood flood-opacity="0" result="BackgroundImageFix"/>
<feBlend mode="normal" in="SourceGraphic" in2="BackgroundImageFix" result="shape"/>
<feGaussianBlur stdDeviation="2" result="effect1_foregroundBlur_6_113"/>
</filter>
</defs>
</svg>
